<svg xmlns="http://www.w3.org/2000/svg" width="1600" height="900" viewBox="0 0 1600 900" role="img" aria-label="极光之境"><defs><linearGradient id="bg" x1="0" y1="0" x2="1" y2="1"><stop offset="0" stop-color="#06121f"/><stop offset="0.55" stop-color="#0b3550"/><stop offset="1" stop-color="#06121f"/></linearGradient><radialGradient id="glow" cx="0.2" cy="0.15" r="0.9"><stop offset="0" stop-color="#7cf0c8" stop-opacity="0.5"/><stop offset="1" stop-color="#06121f" stop-opacity="0"/></radialGradient><filter id="blur"><feGaussianBlur stdDeviation="54"/></filter></defs><rect width="1600" height="900" fill="url(#bg)"/><rect width="1600" height="900" fill="url(#glow)"/><line x1="0" y1="41" x2="1600" y2="41" stroke="#ffffff" stroke-width="1" opacity="0.05"/><line x1="0" y1="141" x2="1600" y2="141" stroke="#ffffff" stroke-width="1" opacity="0.05"/><line x1="0" y1="241" x2="1600" y2="241" stroke="#ffffff" stroke-width="1" opacity="0.05"/><line x1="0" y1="341" x2="1600" y2="341" stroke="#ffffff" stroke-width="1" opacity="0.05"/><line x1="0" y1="441" x2="1600" y2="441" stroke="#ffffff" stroke-width="1" opacity="0.05"/><line x1="0" y1="541" x2="1600" y2="541" stroke="#ffffff" stroke-width="1" opacity="0.05"/><line x1="0" y1="641" x2="1600" y2="641" stroke="#ffffff" stroke-width="1" opacity="0.05"/><line x1="0" y1="741" x2="1600" y2="741" stroke="#ffffff" stroke-width="1" opacity="0.05"/><line x1="0" y1="841" x2="1600" y2="841" stroke="#ffffff" stroke-width="1" opacity="0.05"/><circle cx="450" cy="131" r="146" fill="#7cf0c8" opacity="0.163" filter="url(#blur)"/><circle cx="1034" cy="271" r="330" fill="#7cf0c8" opacity="0.103" filter="url(#blur)"/><circle cx="673" cy="145" r="272" fill="#7cf0c8" opacity="0.072" filter="url(#blur)"/><circle cx="54" cy="511" r="253" fill="#1e9f8f" opacity="0.186" filter="url(#blur)"/><circle cx="616" cy="184" r="258" fill="#b9a6ff" opacity="0.208" filter="url(#blur)"/><circle cx="427" cy="325" r="113" fill="#b9a6ff" opacity="0.089" filter="url(#blur)"/><circle cx="1385" cy="360" r="255" fill="#7cf0c8" opacity="0.175" filter="url(#blur)"/><path d="M -40 570 C 400 454, 992 686, 1640 603" fill="none" stroke="#7cf0c8" stroke-width="1.7" opacity="0.17"/><path d="M -40 512 C 400 460, 992 564, 1640 514" fill="none" stroke="#7cf0c8" stroke-width="2.3" opacity="0.26"/><path d="M -40 493 C 400 377, 992 609, 1640 545" fill="none" stroke="#7cf0c8" stroke-width="0.7" opacity="0.26"/><path d="M -40 190 C 400 117, 992 263, 1640 205" fill="none" stroke="#7cf0c8" stroke-width="2.2" opacity="0.15"/><path d="M -40 463 C 400 359, 992 567, 1640 490" fill="none" stroke="#7cf0c8" stroke-width="1.7" opacity="0.13"/><circle cx="1291" cy="217" r="0.43" fill="#fff" opacity="0.170"/><circle cx="1118" cy="635" r="0.68" fill="#fff" opacity="0.133"/><circle cx="715" cy="547" r="0.01" fill="#fff" opacity="0.061"/><circle cx="1402" cy="384" r="0.62" fill="#fff" opacity="0.145"/><circle cx="1533" cy="35" r="0.89" fill="#fff" opacity="0.085"/><circle cx="1145" cy="661" r="1.12" fill="#fff" opacity="0.028"/><circle cx="290" cy="238" r="1.14" fill="#fff" opacity="0.153"/><circle cx="111" cy="701" r="1.00" fill="#fff" opacity="0.045"/><circle cx="1447" cy="66" r="0.99" fill="#fff" opacity="0.043"/><circle cx="962" cy="372" r="0.98" fill="#fff" opacity="0.131"/><circle cx="678" cy="396" r="0.35" fill="#fff" opacity="0.126"/><circle cx="1100" cy="187" r="0.57" fill="#fff" opacity="0.117"/><circle cx="1112" cy="718" r="0.23" fill="#fff" opacity="0.062"/><circle cx="1455" cy="798" r="1.15" fill="#fff" opacity="0.123"/><circle cx="798" cy="664" r="0.02" fill="#fff" opacity="0.054"/><circle cx="169" cy="750" r="1.16" fill="#fff" opacity="0.129"/><circle cx="87" cy="29" r="0.22" fill="#fff" opacity="0.173"/><circle cx="641" cy="169" r="0.69" fill="#fff" opacity="0.039"/><circle cx="583" cy="353" r="1.02" fill="#fff" opacity="0.047"/><circle cx="814" cy="453" r="0.58" fill="#fff" opacity="0.063"/><circle cx="1570" cy="677" r="0.31" fill="#fff" opacity="0.074"/><circle cx="1183" cy="820" r="0.70" fill="#fff" opacity="0.027"/><circle cx="888" cy="857" r="0.63" fill="#fff" opacity="0.031"/><circle cx="1557" cy="815" r="1.34" fill="#fff" opacity="0.176"/><circle cx="712" cy="115" r="0.85" fill="#fff" opacity="0.147"/><circle cx="794" cy="517" r="1.14" fill="#fff" opacity="0.169"/><circle cx="1435" cy="889" r="0.03" fill="#fff" opacity="0.044"/><circle cx="1559" cy="868" r="0.30" fill="#fff" opacity="0.038"/><circle cx="1413" cy="70" r="0.20" fill="#fff" opacity="0.068"/><circle cx="1538" cy="533" r="0.89" fill="#fff" opacity="0.049"/><circle cx="1135" cy="594" r="0.25" fill="#fff" opacity="0.120"/><circle cx="770" cy="531" r="0.34" fill="#fff" opacity="0.090"/><circle cx="353" cy="199" r="0.92" fill="#fff" opacity="0.144"/><circle cx="291" cy="365" r="0.56" fill="#fff" opacity="0.179"/><circle cx="1402" cy="743" r="1.37" fill="#fff" opacity="0.174"/><circle cx="518" cy="171" r="0.20" fill="#fff" opacity="0.064"/><circle cx="999" cy="541" r="1.03" fill="#fff" opacity="0.058"/><circle cx="1055" cy="825" r="0.44" fill="#fff" opacity="0.098"/><circle cx="375" cy="773" r="1.24" fill="#fff" opacity="0.131"/><circle cx="145" cy="802" r="0.19" fill="#fff" opacity="0.075"/><circle cx="1475" cy="680" r="0.09" fill="#fff" opacity="0.114"/><circle cx="587" cy="128" r="0.39" fill="#fff" opacity="0.022"/><circle cx="637" cy="839" r="1.01" fill="#fff" opacity="0.093"/><circle cx="1177" cy="26" r="0.58" fill="#fff" opacity="0.137"/><circle cx="264" cy="87" r="1.35" fill="#fff" opacity="0.021"/><circle cx="337" cy="118" r="0.15" fill="#fff" opacity="0.133"/><circle cx="876" cy="895" r="0.82" fill="#fff" opacity="0.030"/><circle cx="582" cy="165" r="0.26" fill="#fff" opacity="0.162"/><circle cx="337" cy="50" r="0.34" fill="#fff" opacity="0.074"/><circle cx="719" cy="41" r="1.15" fill="#fff" opacity="0.053"/><circle cx="147" cy="735" r="0.95" fill="#fff" opacity="0.094"/><circle cx="1535" cy="285" r="1.01" fill="#fff" opacity="0.133"/><circle cx="1541" cy="100" r="0.74" fill="#fff" opacity="0.052"/><circle cx="1033" cy="619" r="1.32" fill="#fff" opacity="0.161"/><circle cx="1404" cy="824" r="0.75" fill="#fff" opacity="0.072"/><circle cx="1087" cy="637" r="1.22" fill="#fff" opacity="0.058"/><circle cx="2" cy="16" r="0.51" fill="#fff" opacity="0.087"/><circle cx="1581" cy="539" r="1.16" fill="#fff" opacity="0.068"/><circle cx="1555" cy="123" r="0.73" fill="#fff" opacity="0.103"/><circle cx="633" cy="893" r="1.08" fill="#fff" opacity="0.042"/><circle cx="821" cy="701" r="1.40" fill="#fff" opacity="0.103"/><circle cx="1435" cy="702" r="0.74" fill="#fff" opacity="0.176"/><circle cx="314" cy="392" r="0.64" fill="#fff" opacity="0.131"/><circle cx="1221" cy="671" r="0.45" fill="#fff" opacity="0.164"/><circle cx="206" cy="702" r="1.10" fill="#fff" opacity="0.154"/><circle cx="440" cy="443" r="0.62" fill="#fff" opacity="0.032"/><circle cx="877" cy="732" r="1.00" fill="#fff" opacity="0.049"/><circle cx="368" cy="550" r="0.52" fill="#fff" opacity="0.143"/><circle cx="1462" cy="80" r="0.68" fill="#fff" opacity="0.093"/><circle cx="961" cy="874" r="0.55" fill="#fff" opacity="0.062"/><circle cx="596" cy="654" r="0.19" fill="#fff" opacity="0.065"/><circle cx="493" cy="805" r="0.57" fill="#fff" opacity="0.034"/><circle cx="572" cy="307" r="1.30" fill="#fff" opacity="0.167"/><circle cx="1218" cy="171" r="0.68" fill="#fff" opacity="0.098"/><circle cx="96" cy="559" r="1.19" fill="#fff" opacity="0.153"/><circle cx="626" cy="215" r="0.91" fill="#fff" opacity="0.041"/><circle cx="728" cy="212" r="0.17" fill="#fff" opacity="0.049"/><circle cx="893" cy="632" r="0.88" fill="#fff" opacity="0.106"/><circle cx="995" cy="488" r="0.07" fill="#fff" opacity="0.164"/><circle cx="1574" cy="537" r="0.83" fill="#fff" opacity="0.049"/><circle cx="606" cy="304" r="1.31" fill="#fff" opacity="0.042"/><circle cx="481" cy="694" r="0.88" fill="#fff" opacity="0.026"/><circle cx="655" cy="840" r="1.23" fill="#fff" opacity="0.171"/><circle cx="648" cy="576" r="1.14" fill="#fff" opacity="0.056"/><circle cx="756" cy="290" r="0.74" fill="#fff" opacity="0.123"/><circle cx="1551" cy="733" r="0.31" fill="#fff" opacity="0.051"/><circle cx="1434" cy="722" r="0.10" fill="#fff" opacity="0.107"/><circle cx="216" cy="79" r="0.65" fill="#fff" opacity="0.171"/><circle cx="177" cy="309" r="0.40" fill="#fff" opacity="0.037"/><circle cx="426" cy="488" r="0.83" fill="#fff" opacity="0.063"/><g font-family="PingFang SC, Hiragino Sans GB, Microsoft YaHei, Helvetica Neue, Arial, sans-serif"><text x="112" y="432" font-size="120" font-weight="700" fill="#f8fafc" letter-spacing="-1">极光之境</text><text x="114" y="504" font-size="34" fill="#7cf0c8" opacity="0.9" letter-spacing="2">AURORA REALM · 4K</text><text x="114" y="837" font-size="24" fill="#e2e8f0" opacity="0.55" letter-spacing="3">AURORA VAULT · SEED 03</text></g></svg>