<svg xmlns="http://www.w3.org/2000/svg" width="1600" height="900" viewBox="0 0 1600 900" role="img" aria-label="极光之境"><defs><linearGradient id="bg" x1="0" y1="0" x2="1" y2="1"><stop offset="0" stop-color="#06121f"/><stop offset="0.55" stop-color="#0b3550"/><stop offset="1" stop-color="#06121f"/></linearGradient><radialGradient id="glow" cx="0.2" cy="0.15" r="0.9"><stop offset="0" stop-color="#7cf0c8" stop-opacity="0.5"/><stop offset="1" stop-color="#06121f" stop-opacity="0"/></radialGradient><filter id="blur"><feGaussianBlur stdDeviation="54"/></filter></defs><rect width="1600" height="900" fill="url(#bg)"/><rect width="1600" height="900" fill="url(#glow)"/><line x1="0" y1="41" x2="1600" y2="41" stroke="#ffffff" stroke-width="1" opacity="0.05"/><line x1="0" y1="141" x2="1600" y2="141" stroke="#ffffff" stroke-width="1" opacity="0.05"/><line x1="0" y1="241" x2="1600" y2="241" stroke="#ffffff" stroke-width="1" opacity="0.05"/><line x1="0" y1="341" x2="1600" y2="341" stroke="#ffffff" stroke-width="1" opacity="0.05"/><line x1="0" y1="441" x2="1600" y2="441" stroke="#ffffff" stroke-width="1" opacity="0.05"/><line x1="0" y1="541" x2="1600" y2="541" stroke="#ffffff" stroke-width="1" opacity="0.05"/><line x1="0" y1="641" x2="1600" y2="641" stroke="#ffffff" stroke-width="1" opacity="0.05"/><line x1="0" y1="741" x2="1600" y2="741" stroke="#ffffff" stroke-width="1" opacity="0.05"/><line x1="0" y1="841" x2="1600" y2="841" stroke="#ffffff" stroke-width="1" opacity="0.05"/><circle cx="304" cy="826" r="171" fill="#7cf0c8" opacity="0.176" filter="url(#blur)"/><circle cx="870" cy="758" r="306" fill="#b9a6ff" opacity="0.088" filter="url(#blur)"/><circle cx="223" cy="25" r="135" fill="#7cf0c8" opacity="0.064" filter="url(#blur)"/><circle cx="97" cy="164" r="202" fill="#1e9f8f" opacity="0.148" filter="url(#blur)"/><circle cx="715" cy="539" r="393" fill="#7cf0c8" opacity="0.112" filter="url(#blur)"/><circle cx="85" cy="573" r="411" fill="#1e9f8f" opacity="0.064" filter="url(#blur)"/><circle cx="925" cy="836" r="182" fill="#7cf0c8" opacity="0.095" filter="url(#blur)"/><path d="M -40 463 C 400 394, 992 532, 1640 496" fill="none" stroke="#7cf0c8" stroke-width="0.8" opacity="0.22"/><path d="M -40 204 C 400 160, 992 248, 1640 224" fill="none" stroke="#7cf0c8" stroke-width="2.3" opacity="0.13"/><path d="M -40 153 C 400 37, 992 269, 1640 120" fill="none" stroke="#7cf0c8" stroke-width="2.0" opacity="0.14"/><path d="M -40 456 C 400 356, 992 556, 1640 439" fill="none" stroke="#7cf0c8" stroke-width="0.6" opacity="0.44"/><path d="M -40 269 C 400 153, 992 385, 1640 266" fill="none" stroke="#7cf0c8" stroke-width="1.9" opacity="0.24"/><circle cx="1059" cy="476" r="0.22" fill="#fff" opacity="0.169"/><circle cx="508" cy="54" r="0.82" fill="#fff" opacity="0.052"/><circle cx="1454" cy="800" r="1.27" fill="#fff" opacity="0.101"/><circle cx="1095" cy="761" r="0.71" fill="#fff" opacity="0.145"/><circle cx="431" cy="36" r="0.30" fill="#fff" opacity="0.120"/><circle cx="367" cy="205" r="0.16" fill="#fff" opacity="0.042"/><circle cx="833" cy="415" r="0.97" fill="#fff" opacity="0.070"/><circle cx="388" cy="721" r="0.30" fill="#fff" opacity="0.150"/><circle cx="1071" cy="178" r="0.55" fill="#fff" opacity="0.144"/><circle cx="1206" cy="248" r="0.82" fill="#fff" opacity="0.081"/><circle cx="1188" cy="381" r="1.32" fill="#fff" opacity="0.025"/><circle cx="308" cy="670" r="0.25" fill="#fff" opacity="0.088"/><circle cx="723" cy="301" r="0.38" fill="#fff" opacity="0.035"/><circle cx="999" cy="119" r="0.15" fill="#fff" opacity="0.094"/><circle cx="978" cy="245" r="0.02" fill="#fff" opacity="0.086"/><circle cx="929" cy="661" r="0.34" fill="#fff" opacity="0.125"/><circle cx="1512" cy="173" r="0.89" fill="#fff" opacity="0.110"/><circle cx="282" cy="548" r="0.29" fill="#fff" opacity="0.120"/><circle cx="1565" cy="139" r="0.33" fill="#fff" opacity="0.166"/><circle cx="143" cy="539" r="0.24" fill="#fff" opacity="0.047"/><circle cx="311" cy="786" r="0.15" fill="#fff" opacity="0.103"/><circle cx="568" cy="595" r="0.57" fill="#fff" opacity="0.178"/><circle cx="198" cy="220" r="0.92" fill="#fff" opacity="0.074"/><circle cx="1385" cy="748" r="0.69" fill="#fff" opacity="0.177"/><circle cx="1321" cy="858" r="0.20" fill="#fff" opacity="0.172"/><circle cx="810" cy="558" r="0.89" fill="#fff" opacity="0.153"/><circle cx="1256" cy="635" r="1.16" fill="#fff" opacity="0.138"/><circle cx="155" cy="313" r="0.50" fill="#fff" opacity="0.134"/><circle cx="700" cy="864" r="0.35" fill="#fff" opacity="0.078"/><circle cx="761" cy="640" r="0.47" fill="#fff" opacity="0.126"/><circle cx="1129" cy="90" r="0.15" fill="#fff" opacity="0.109"/><circle cx="654" cy="336" r="0.08" fill="#fff" opacity="0.123"/><circle cx="304" cy="737" r="0.25" fill="#fff" opacity="0.118"/><circle cx="822" cy="168" r="0.87" fill="#fff" opacity="0.072"/><circle cx="308" cy="214" r="0.24" fill="#fff" opacity="0.034"/><circle cx="927" cy="319" r="0.87" fill="#fff" opacity="0.096"/><circle cx="639" cy="710" r="0.47" fill="#fff" opacity="0.039"/><circle cx="1027" cy="81" r="0.24" fill="#fff" opacity="0.123"/><circle cx="1284" cy="887" r="0.71" fill="#fff" opacity="0.139"/><circle cx="127" cy="754" r="1.12" fill="#fff" opacity="0.109"/><circle cx="782" cy="677" r="0.32" fill="#fff" opacity="0.127"/><circle cx="1363" cy="77" r="1.04" fill="#fff" opacity="0.080"/><circle cx="1012" cy="290" r="0.88" fill="#fff" opacity="0.116"/><circle cx="1119" cy="95" r="0.50" fill="#fff" opacity="0.157"/><circle cx="860" cy="706" r="0.41" fill="#fff" opacity="0.130"/><circle cx="1588" cy="162" r="1.15" fill="#fff" opacity="0.086"/><circle cx="354" cy="64" r="0.63" fill="#fff" opacity="0.148"/><circle cx="272" cy="645" r="0.38" fill="#fff" opacity="0.072"/><circle cx="950" cy="40" r="0.92" fill="#fff" opacity="0.120"/><circle cx="869" cy="268" r="0.78" fill="#fff" opacity="0.081"/><circle cx="64" cy="824" r="0.15" fill="#fff" opacity="0.086"/><circle cx="147" cy="551" r="1.29" fill="#fff" opacity="0.066"/><circle cx="189" cy="225" r="0.88" fill="#fff" opacity="0.057"/><circle cx="1138" cy="120" r="0.63" fill="#fff" opacity="0.135"/><circle cx="789" cy="471" r="1.11" fill="#fff" opacity="0.047"/><circle cx="537" cy="793" r="1.23" fill="#fff" opacity="0.141"/><circle cx="1258" cy="843" r="0.66" fill="#fff" opacity="0.167"/><circle cx="377" cy="184" r="0.99" fill="#fff" opacity="0.087"/><circle cx="651" cy="422" r="1.04" fill="#fff" opacity="0.129"/><circle cx="1232" cy="610" r="1.20" fill="#fff" opacity="0.133"/><circle cx="1064" cy="740" r="0.65" fill="#fff" opacity="0.087"/><circle cx="735" cy="478" r="1.01" fill="#fff" opacity="0.095"/><circle cx="260" cy="236" r="1.33" fill="#fff" opacity="0.158"/><circle cx="964" cy="288" r="0.30" fill="#fff" opacity="0.058"/><circle cx="952" cy="721" r="0.45" fill="#fff" opacity="0.173"/><circle cx="1401" cy="219" r="0.66" fill="#fff" opacity="0.150"/><circle cx="1012" cy="190" r="1.35" fill="#fff" opacity="0.077"/><circle cx="934" cy="656" r="0.84" fill="#fff" opacity="0.080"/><circle cx="86" cy="520" r="0.27" fill="#fff" opacity="0.171"/><circle cx="165" cy="25" r="0.26" fill="#fff" opacity="0.089"/><circle cx="727" cy="523" r="1.33" fill="#fff" opacity="0.151"/><circle cx="114" cy="597" r="0.76" fill="#fff" opacity="0.155"/><circle cx="962" cy="552" r="1.16" fill="#fff" opacity="0.162"/><circle cx="906" cy="392" r="0.78" fill="#fff" opacity="0.179"/><circle cx="565" cy="245" r="0.72" fill="#fff" opacity="0.074"/><circle cx="1037" cy="108" r="1.34" fill="#fff" opacity="0.113"/><circle cx="1391" cy="380" r="0.12" fill="#fff" opacity="0.106"/><circle cx="1020" cy="442" r="0.29" fill="#fff" opacity="0.128"/><circle cx="689" cy="551" r="1.10" fill="#fff" opacity="0.143"/><circle cx="310" cy="161" r="1.12" fill="#fff" opacity="0.164"/><circle cx="1575" cy="416" r="1.21" fill="#fff" opacity="0.166"/><circle cx="1367" cy="764" r="0.50" fill="#fff" opacity="0.044"/><circle cx="62" cy="651" r="1.18" fill="#fff" opacity="0.148"/><circle cx="9" cy="844" r="0.19" fill="#fff" opacity="0.152"/><circle cx="1485" cy="120" r="1.40" fill="#fff" opacity="0.049"/><circle cx="352" cy="58" r="1.01" fill="#fff" opacity="0.110"/><circle cx="1270" cy="169" r="0.16" fill="#fff" opacity="0.026"/><circle cx="5" cy="751" r="0.78" fill="#fff" opacity="0.073"/><circle cx="805" cy="699" r="1.08" fill="#fff" opacity="0.135"/><circle cx="1024" cy="893" r="0.88" fill="#fff" opacity="0.167"/><g font-family="PingFang SC, Hiragino Sans GB, Microsoft YaHei, Helvetica Neue, Arial, sans-serif"><text x="112" y="432" font-size="120" font-weight="700" fill="#f8fafc" letter-spacing="-1">极光之境</text><text x="114" y="504" font-size="34" fill="#7cf0c8" opacity="0.9" letter-spacing="2">AURORA REALM · 4K</text><text x="114" y="837" font-size="24" fill="#e2e8f0" opacity="0.55" letter-spacing="3">AURORA VAULT · SEED 01</text></g></svg>