<svg xmlns="http://www.w3.org/2000/svg" width="1600" height="900" viewBox="0 0 1600 900" role="img" aria-label="DEEP SIGNAL"><defs><linearGradient id="bg" x1="0" y1="0" x2="1" y2="1"><stop offset="0" stop-color="#05090f"/><stop offset="0.55" stop-color="#0e2a47"/><stop offset="1" stop-color="#05090f"/></linearGradient><radialGradient id="glow" cx="0.2" cy="0.15" r="0.9"><stop offset="0" stop-color="#7fd1ff" stop-opacity="0.5"/><stop offset="1" stop-color="#05090f" stop-opacity="0"/></radialGradient><filter id="blur"><feGaussianBlur stdDeviation="54"/></filter></defs><rect width="1600" height="900" fill="url(#bg)"/><rect width="1600" height="900" fill="url(#glow)"/><line x1="0" y1="41" x2="1600" y2="41" stroke="#ffffff" stroke-width="1" opacity="0.05"/><line x1="0" y1="141" x2="1600" y2="141" stroke="#ffffff" stroke-width="1" opacity="0.05"/><line x1="0" y1="241" x2="1600" y2="241" stroke="#ffffff" stroke-width="1" opacity="0.05"/><line x1="0" y1="341" x2="1600" y2="341" stroke="#ffffff" stroke-width="1" opacity="0.05"/><line x1="0" y1="441" x2="1600" y2="441" stroke="#ffffff" stroke-width="1" opacity="0.05"/><line x1="0" y1="541" x2="1600" y2="541" stroke="#ffffff" stroke-width="1" opacity="0.05"/><line x1="0" y1="641" x2="1600" y2="641" stroke="#ffffff" stroke-width="1" opacity="0.05"/><line x1="0" y1="741" x2="1600" y2="741" stroke="#ffffff" stroke-width="1" opacity="0.05"/><line x1="0" y1="841" x2="1600" y2="841" stroke="#ffffff" stroke-width="1" opacity="0.05"/><circle cx="1123" cy="46" r="256" fill="#7fd1ff" opacity="0.060" filter="url(#blur)"/><circle cx="1154" cy="11" r="345" fill="#f7b955" opacity="0.123" filter="url(#blur)"/><circle cx="787" cy="632" r="340" fill="#f7b955" opacity="0.184" filter="url(#blur)"/><circle cx="844" cy="88" r="292" fill="#2f7bd6" opacity="0.205" filter="url(#blur)"/><circle cx="159" cy="679" r="265" fill="#f7b955" opacity="0.138" filter="url(#blur)"/><circle cx="1006" cy="828" r="337" fill="#7fd1ff" opacity="0.153" filter="url(#blur)"/><circle cx="1350" cy="338" r="327" fill="#2f7bd6" opacity="0.186" filter="url(#blur)"/><path d="M -40 578 C 400 539, 992 617, 1640 590" fill="none" stroke="#7fd1ff" stroke-width="2.1" opacity="0.14"/><path d="M -40 296 C 400 240, 992 352, 1640 268" fill="none" stroke="#7fd1ff" stroke-width="0.9" opacity="0.35"/><path d="M -40 392 C 400 282, 992 502, 1640 422" fill="none" stroke="#7fd1ff" stroke-width="1.9" opacity="0.44"/><path d="M -40 746 C 400 656, 992 836, 1640 775" fill="none" stroke="#7fd1ff" stroke-width="2.1" opacity="0.20"/><path d="M -40 498 C 400 466, 992 530, 1640 504" fill="none" stroke="#7fd1ff" stroke-width="1.2" opacity="0.43"/><circle cx="96" cy="32" r="0.78" fill="#fff" opacity="0.086"/><circle cx="1170" cy="135" r="0.12" fill="#fff" opacity="0.075"/><circle cx="263" cy="31" r="0.03" fill="#fff" opacity="0.067"/><circle cx="774" cy="687" r="1.06" fill="#fff" opacity="0.122"/><circle cx="1301" cy="159" r="0.04" fill="#fff" opacity="0.035"/><circle cx="1030" cy="464" r="0.88" fill="#fff" opacity="0.080"/><circle cx="1363" cy="869" r="0.07" fill="#fff" opacity="0.033"/><circle cx="898" cy="540" r="1.10" fill="#fff" opacity="0.050"/><circle cx="130" cy="594" r="0.73" fill="#fff" opacity="0.063"/><circle cx="600" cy="604" r="0.14" fill="#fff" opacity="0.051"/><circle cx="176" cy="260" r="1.33" fill="#fff" opacity="0.133"/><circle cx="1352" cy="636" r="1.39" fill="#fff" opacity="0.068"/><circle cx="1503" cy="811" r="0.18" fill="#fff" opacity="0.178"/><circle cx="1580" cy="5" r="0.42" fill="#fff" opacity="0.122"/><circle cx="905" cy="836" r="0.03" fill="#fff" opacity="0.120"/><circle cx="1285" cy="21" r="0.95" fill="#fff" opacity="0.065"/><circle cx="825" cy="693" r="0.31" fill="#fff" opacity="0.133"/><circle cx="1293" cy="860" r="0.55" fill="#fff" opacity="0.119"/><circle cx="598" cy="465" r="0.38" fill="#fff" opacity="0.097"/><circle cx="1017" cy="279" r="0.53" fill="#fff" opacity="0.148"/><circle cx="741" cy="244" r="0.94" fill="#fff" opacity="0.067"/><circle cx="395" cy="347" r="0.11" fill="#fff" opacity="0.089"/><circle cx="266" cy="3" r="0.92" fill="#fff" opacity="0.128"/><circle cx="78" cy="840" r="1.09" fill="#fff" opacity="0.153"/><circle cx="555" cy="630" r="1.09" fill="#fff" opacity="0.040"/><circle cx="1012" cy="369" r="0.92" fill="#fff" opacity="0.034"/><circle cx="706" cy="356" r="1.22" fill="#fff" opacity="0.031"/><circle cx="468" cy="524" r="1.23" fill="#fff" opacity="0.156"/><circle cx="893" cy="563" r="1.33" fill="#fff" opacity="0.113"/><circle cx="981" cy="102" r="0.07" fill="#fff" opacity="0.035"/><circle cx="329" cy="618" r="0.98" fill="#fff" opacity="0.167"/><circle cx="1250" cy="656" r="0.61" fill="#fff" opacity="0.127"/><circle cx="968" cy="745" r="0.66" fill="#fff" opacity="0.089"/><circle cx="677" cy="285" r="0.85" fill="#fff" opacity="0.127"/><circle cx="816" cy="546" r="0.21" fill="#fff" opacity="0.028"/><circle cx="270" cy="578" r="0.89" fill="#fff" opacity="0.047"/><circle cx="1494" cy="14" r="0.85" fill="#fff" opacity="0.089"/><circle cx="1073" cy="664" r="0.96" fill="#fff" opacity="0.063"/><circle cx="1006" cy="546" r="1.15" fill="#fff" opacity="0.021"/><circle cx="760" cy="599" r="0.22" fill="#fff" opacity="0.137"/><circle cx="216" cy="22" r="0.34" fill="#fff" opacity="0.133"/><circle cx="790" cy="150" r="0.86" fill="#fff" opacity="0.052"/><circle cx="73" cy="529" r="1.02" fill="#fff" opacity="0.048"/><circle cx="824" cy="887" r="0.43" fill="#fff" opacity="0.062"/><circle cx="1365" cy="367" r="1.25" fill="#fff" opacity="0.080"/><circle cx="1439" cy="585" r="0.68" fill="#fff" opacity="0.164"/><circle cx="1359" cy="592" r="1.01" fill="#fff" opacity="0.102"/><circle cx="1263" cy="718" r="0.89" fill="#fff" opacity="0.144"/><circle cx="288" cy="282" r="0.71" fill="#fff" opacity="0.105"/><circle cx="1256" cy="78" r="0.35" fill="#fff" opacity="0.151"/><circle cx="217" cy="60" r="1.37" fill="#fff" opacity="0.125"/><circle cx="975" cy="806" r="1.19" fill="#fff" opacity="0.116"/><circle cx="930" cy="741" r="0.32" fill="#fff" opacity="0.138"/><circle cx="275" cy="545" r="0.60" fill="#fff" opacity="0.161"/><circle cx="30" cy="898" r="0.19" fill="#fff" opacity="0.150"/><circle cx="1510" cy="44" r="0.50" fill="#fff" opacity="0.139"/><circle cx="1447" cy="464" r="0.64" fill="#fff" opacity="0.060"/><circle cx="1019" cy="23" r="0.84" fill="#fff" opacity="0.090"/><circle cx="403" cy="115" r="1.24" fill="#fff" opacity="0.032"/><circle cx="684" cy="668" r="0.01" fill="#fff" opacity="0.112"/><circle cx="134" cy="644" r="1.31" fill="#fff" opacity="0.067"/><circle cx="1511" cy="274" r="0.28" fill="#fff" opacity="0.134"/><circle cx="945" cy="294" r="0.94" fill="#fff" opacity="0.115"/><circle cx="660" cy="622" r="1.12" fill="#fff" opacity="0.057"/><circle cx="421" cy="705" r="1.35" fill="#fff" opacity="0.085"/><circle cx="1546" cy="826" r="1.30" fill="#fff" opacity="0.062"/><circle cx="21" cy="775" r="0.82" fill="#fff" opacity="0.168"/><circle cx="1284" cy="72" r="1.21" fill="#fff" opacity="0.026"/><circle cx="1113" cy="123" r="1.06" fill="#fff" opacity="0.030"/><circle cx="777" cy="386" r="1.35" fill="#fff" opacity="0.121"/><circle cx="838" cy="161" r="1.02" fill="#fff" opacity="0.143"/><circle cx="263" cy="342" r="1.18" fill="#fff" opacity="0.060"/><circle cx="1185" cy="834" r="0.60" fill="#fff" opacity="0.134"/><circle cx="1348" cy="98" r="0.25" fill="#fff" opacity="0.156"/><circle cx="1007" cy="781" r="0.72" fill="#fff" opacity="0.113"/><circle cx="1233" cy="770" r="0.83" fill="#fff" opacity="0.127"/><circle cx="1351" cy="62" r="1.03" fill="#fff" opacity="0.039"/><circle cx="1027" cy="282" r="0.95" fill="#fff" opacity="0.111"/><circle cx="264" cy="648" r="0.88" fill="#fff" opacity="0.135"/><circle cx="138" cy="860" r="0.34" fill="#fff" opacity="0.130"/><circle cx="1408" cy="458" r="0.90" fill="#fff" opacity="0.063"/><circle cx="1487" cy="185" r="0.09" fill="#fff" opacity="0.029"/><circle cx="1517" cy="326" r="0.17" fill="#fff" opacity="0.091"/><circle cx="1150" cy="324" r="0.06" fill="#fff" opacity="0.066"/><circle cx="1499" cy="456" r="1.00" fill="#fff" opacity="0.095"/><circle cx="651" cy="65" r="0.88" fill="#fff" opacity="0.041"/><circle cx="233" cy="730" r="0.30" fill="#fff" opacity="0.148"/><circle cx="420" cy="568" r="0.46" fill="#fff" opacity="0.064"/><circle cx="211" cy="530" r="0.66" fill="#fff" opacity="0.054"/><circle cx="913" cy="312" r="0.69" fill="#fff" opacity="0.044"/><g font-family="PingFang SC, Hiragino Sans GB, Microsoft YaHei, Helvetica Neue, Arial, sans-serif"><text x="112" y="432" font-size="120" font-weight="700" fill="#f8fafc" letter-spacing="-1">DEEP SIGNAL</text><text x="114" y="504" font-size="34" fill="#7fd1ff" opacity="0.9" letter-spacing="2">深度学习工程实践 2025</text><text x="114" y="837" font-size="24" fill="#e2e8f0" opacity="0.55" letter-spacing="3">AURORA VAULT · SEED 01</text></g></svg>