<svg xmlns="http://www.w3.org/2000/svg" width="1600" height="900" viewBox="0 0 1600 900" role="img" aria-label="明日博物馆"><defs><linearGradient id="bg" x1="0" y1="0" x2="1" y2="1"><stop offset="0" stop-color="#0b0f1a"/><stop offset="0.55" stop-color="#1b2a52"/><stop offset="1" stop-color="#0b0f1a"/></linearGradient><radialGradient id="glow" cx="0.2" cy="0.15" r="0.9"><stop offset="0" stop-color="#b3c3ff" stop-opacity="0.5"/><stop offset="1" stop-color="#0b0f1a" stop-opacity="0"/></radialGradient><filter id="blur"><feGaussianBlur stdDeviation="54"/></filter></defs><rect width="1600" height="900" fill="url(#bg)"/><rect width="1600" height="900" fill="url(#glow)"/><line x1="0" y1="41" x2="1600" y2="41" stroke="#ffffff" stroke-width="1" opacity="0.05"/><line x1="0" y1="141" x2="1600" y2="141" stroke="#ffffff" stroke-width="1" opacity="0.05"/><line x1="0" y1="241" x2="1600" y2="241" stroke="#ffffff" stroke-width="1" opacity="0.05"/><line x1="0" y1="341" x2="1600" y2="341" stroke="#ffffff" stroke-width="1" opacity="0.05"/><line x1="0" y1="441" x2="1600" y2="441" stroke="#ffffff" stroke-width="1" opacity="0.05"/><line x1="0" y1="541" x2="1600" y2="541" stroke="#ffffff" stroke-width="1" opacity="0.05"/><line x1="0" y1="641" x2="1600" y2="641" stroke="#ffffff" stroke-width="1" opacity="0.05"/><line x1="0" y1="741" x2="1600" y2="741" stroke="#ffffff" stroke-width="1" opacity="0.05"/><line x1="0" y1="841" x2="1600" y2="841" stroke="#ffffff" stroke-width="1" opacity="0.05"/><circle cx="1412" cy="416" r="330" fill="#b3c3ff" opacity="0.130" filter="url(#blur)"/><circle cx="514" cy="171" r="193" fill="#5d7cff" opacity="0.164" filter="url(#blur)"/><circle cx="79" cy="73" r="384" fill="#ffd9a8" opacity="0.074" filter="url(#blur)"/><circle cx="690" cy="501" r="217" fill="#5d7cff" opacity="0.161" filter="url(#blur)"/><circle cx="1013" cy="713" r="295" fill="#ffd9a8" opacity="0.165" filter="url(#blur)"/><circle cx="430" cy="322" r="351" fill="#5d7cff" opacity="0.173" filter="url(#blur)"/><circle cx="295" cy="731" r="160" fill="#b3c3ff" opacity="0.177" filter="url(#blur)"/><path d="M -40 328 C 400 262, 992 394, 1640 301" fill="none" stroke="#b3c3ff" stroke-width="1.6" opacity="0.16"/><path d="M -40 342 C 400 288, 992 396, 1640 333" fill="none" stroke="#b3c3ff" stroke-width="1.0" opacity="0.19"/><path d="M -40 306 C 400 255, 992 357, 1640 311" fill="none" stroke="#b3c3ff" stroke-width="2.2" opacity="0.25"/><path d="M -40 336 C 400 220, 992 452, 1640 309" fill="none" stroke="#b3c3ff" stroke-width="2.2" opacity="0.38"/><path d="M -40 229 C 400 125, 992 333, 1640 248" fill="none" stroke="#b3c3ff" stroke-width="0.8" opacity="0.30"/><circle cx="1331" cy="863" r="0.03" fill="#fff" opacity="0.150"/><circle cx="1497" cy="775" r="0.65" fill="#fff" opacity="0.077"/><circle cx="1297" cy="610" r="1.19" fill="#fff" opacity="0.134"/><circle cx="974" cy="57" r="0.24" fill="#fff" opacity="0.089"/><circle cx="1424" cy="650" r="0.26" fill="#fff" opacity="0.095"/><circle cx="703" cy="522" r="0.57" fill="#fff" opacity="0.127"/><circle cx="6" cy="154" r="0.25" fill="#fff" opacity="0.139"/><circle cx="575" cy="282" r="0.92" fill="#fff" opacity="0.117"/><circle cx="788" cy="699" r="1.21" fill="#fff" opacity="0.177"/><circle cx="1524" cy="124" r="0.41" fill="#fff" opacity="0.108"/><circle cx="954" cy="10" r="0.95" fill="#fff" opacity="0.179"/><circle cx="44" cy="485" r="0.91" fill="#fff" opacity="0.072"/><circle cx="1416" cy="328" r="0.82" fill="#fff" opacity="0.074"/><circle cx="1174" cy="792" r="0.07" fill="#fff" opacity="0.054"/><circle cx="1172" cy="837" r="0.89" fill="#fff" opacity="0.170"/><circle cx="972" cy="303" r="1.22" fill="#fff" opacity="0.173"/><circle cx="624" cy="91" r="1.04" fill="#fff" opacity="0.121"/><circle cx="227" cy="293" r="0.64" fill="#fff" opacity="0.082"/><circle cx="409" cy="800" r="1.19" fill="#fff" opacity="0.041"/><circle cx="409" cy="318" r="0.23" fill="#fff" opacity="0.132"/><circle cx="1293" cy="540" r="0.56" fill="#fff" opacity="0.067"/><circle cx="1104" cy="165" r="1.31" fill="#fff" opacity="0.141"/><circle cx="1588" cy="594" r="0.54" fill="#fff" opacity="0.139"/><circle cx="1233" cy="419" r="1.26" fill="#fff" opacity="0.022"/><circle cx="670" cy="318" r="1.24" fill="#fff" opacity="0.097"/><circle cx="972" cy="330" r="0.15" fill="#fff" opacity="0.038"/><circle cx="765" cy="405" r="0.06" fill="#fff" opacity="0.031"/><circle cx="986" cy="439" r="1.30" fill="#fff" opacity="0.020"/><circle cx="1004" cy="587" r="0.52" fill="#fff" opacity="0.151"/><circle cx="328" cy="728" r="1.38" fill="#fff" opacity="0.037"/><circle cx="539" cy="379" r="0.97" fill="#fff" opacity="0.138"/><circle cx="1574" cy="547" r="0.94" fill="#fff" opacity="0.110"/><circle cx="856" cy="247" r="0.05" fill="#fff" opacity="0.096"/><circle cx="1160" cy="284" r="1.34" fill="#fff" opacity="0.102"/><circle cx="447" cy="29" r="0.38" fill="#fff" opacity="0.120"/><circle cx="313" cy="868" r="0.47" fill="#fff" opacity="0.026"/><circle cx="884" cy="367" r="0.96" fill="#fff" opacity="0.063"/><circle cx="1089" cy="22" r="0.25" fill="#fff" opacity="0.049"/><circle cx="542" cy="589" r="0.01" fill="#fff" opacity="0.035"/><circle cx="783" cy="730" r="0.72" fill="#fff" opacity="0.042"/><circle cx="470" cy="563" r="1.13" fill="#fff" opacity="0.092"/><circle cx="532" cy="594" r="0.83" fill="#fff" opacity="0.063"/><circle cx="1187" cy="757" r="0.35" fill="#fff" opacity="0.039"/><circle cx="734" cy="758" r="1.10" fill="#fff" opacity="0.079"/><circle cx="582" cy="135" r="1.29" fill="#fff" opacity="0.069"/><circle cx="1346" cy="822" r="0.20" fill="#fff" opacity="0.061"/><circle cx="533" cy="781" r="1.32" fill="#fff" opacity="0.129"/><circle cx="322" cy="140" r="0.63" fill="#fff" opacity="0.156"/><circle cx="872" cy="776" r="0.00" fill="#fff" opacity="0.056"/><circle cx="804" cy="196" r="0.10" fill="#fff" opacity="0.180"/><circle cx="288" cy="438" r="0.15" fill="#fff" opacity="0.046"/><circle cx="256" cy="811" r="0.27" fill="#fff" opacity="0.023"/><circle cx="260" cy="317" r="1.00" fill="#fff" opacity="0.152"/><circle cx="852" cy="227" r="0.16" fill="#fff" opacity="0.143"/><circle cx="190" cy="495" r="0.74" fill="#fff" opacity="0.147"/><circle cx="1536" cy="455" r="0.28" fill="#fff" opacity="0.072"/><circle cx="620" cy="453" r="1.30" fill="#fff" opacity="0.086"/><circle cx="1036" cy="274" r="0.82" fill="#fff" opacity="0.079"/><circle cx="1445" cy="586" r="0.16" fill="#fff" opacity="0.032"/><circle cx="177" cy="726" r="1.06" fill="#fff" opacity="0.109"/><circle cx="685" cy="349" r="0.04" fill="#fff" opacity="0.067"/><circle cx="185" cy="846" r="0.02" fill="#fff" opacity="0.022"/><circle cx="158" cy="407" r="0.15" fill="#fff" opacity="0.059"/><circle cx="876" cy="140" r="0.16" fill="#fff" opacity="0.155"/><circle cx="645" cy="387" r="1.31" fill="#fff" opacity="0.139"/><circle cx="1068" cy="757" r="0.36" fill="#fff" opacity="0.022"/><circle cx="609" cy="524" r="0.76" fill="#fff" opacity="0.159"/><circle cx="591" cy="500" r="0.85" fill="#fff" opacity="0.159"/><circle cx="599" cy="456" r="0.61" fill="#fff" opacity="0.175"/><circle cx="1114" cy="586" r="0.60" fill="#fff" opacity="0.134"/><circle cx="356" cy="577" r="0.83" fill="#fff" opacity="0.026"/><circle cx="1527" cy="198" r="0.40" fill="#fff" opacity="0.023"/><circle cx="386" cy="711" r="0.85" fill="#fff" opacity="0.116"/><circle cx="485" cy="583" r="0.55" fill="#fff" opacity="0.028"/><circle cx="973" cy="610" r="0.51" fill="#fff" opacity="0.020"/><circle cx="1346" cy="544" r="0.11" fill="#fff" opacity="0.101"/><circle cx="1459" cy="221" r="0.62" fill="#fff" opacity="0.168"/><circle cx="1583" cy="396" r="0.72" fill="#fff" opacity="0.050"/><circle cx="1228" cy="802" r="1.25" fill="#fff" opacity="0.023"/><circle cx="1039" cy="209" r="0.91" fill="#fff" opacity="0.027"/><circle cx="1080" cy="759" r="1.19" fill="#fff" opacity="0.124"/><circle cx="246" cy="859" r="1.09" fill="#fff" opacity="0.129"/><circle cx="449" cy="275" r="0.18" fill="#fff" opacity="0.169"/><circle cx="998" cy="688" r="0.60" fill="#fff" opacity="0.154"/><circle cx="679" cy="422" r="0.61" fill="#fff" opacity="0.115"/><circle cx="1062" cy="858" r="0.19" fill="#fff" opacity="0.091"/><circle cx="96" cy="482" r="0.54" fill="#fff" opacity="0.116"/><circle cx="1509" cy="479" r="0.57" fill="#fff" opacity="0.131"/><circle cx="126" cy="376" r="0.28" fill="#fff" opacity="0.114"/><circle cx="959" cy="832" r="0.79" fill="#fff" opacity="0.102"/><g font-family="PingFang SC, Hiragino Sans GB, Microsoft YaHei, Helvetica Neue, Arial, sans-serif"><text x="112" y="432" font-size="120" font-weight="700" fill="#f8fafc" letter-spacing="-1">明日博物馆</text><text x="114" y="504" font-size="34" fill="#b3c3ff" opacity="0.9" letter-spacing="2">MUSEUM OF TOMORROW</text><text x="114" y="837" font-size="24" fill="#e2e8f0" opacity="0.55" letter-spacing="3">AURORA VAULT · SEED 01</text></g></svg>